<?xml version="1.0" encoding="utf-8"?>
<!-- Generator: Adobe Illustrator 20.1.0, SVG Export Plug-In . SVG Version: 6.00 Build 0)  -->
<svg version="1.1" id="logos" xmlns="http://www.w3.org/2000/svg" xmlns:xlink="http://www.w3.org/1999/xlink" x="0px" y="0px"
	 viewBox="0 0 125 40" enable-background="new 0 0 125 40" xml:space="preserve">
<g>
	<g id="icons_1_">
		<g id="Amazon_1_">
			<g>
				<path fill="#FF9900" d="M51.937,30.722c-4.864,3.651-11.917,5.593-17.989,5.593c-8.512,0-16.174-3.2-21.973-8.526
					c-0.456-0.419-0.05-0.989,0.498-0.666c6.257,3.704,13.994,5.934,21.986,5.934c5.391,0,11.317-1.137,16.771-3.49
					C52.052,29.212,52.742,30.117,51.937,30.722z"/>
				<path fill="#FF9900" d="M53.961,28.371c-0.623-0.81-4.113-0.384-5.681-0.193c-0.474,0.058-0.548-0.364-0.12-0.67
					c2.784-1.989,7.347-1.415,7.877-0.749c0.534,0.672-0.14,5.324-2.749,7.544c-0.401,0.342-0.783,0.16-0.605-0.291
					C53.269,32.522,54.583,29.183,53.961,28.371z"/>
			</g>
			<g>
				<path fill="#FFFFFF" d="M48.391,13.456v-1.932c0.001-0.293,0.22-0.49,0.482-0.489l8.516-0.001c0.272,0,0.49,0.201,0.492,0.487
					l-0.001,1.658c-0.001,0.279-0.231,0.642-0.642,1.218l-4.411,6.406c1.639-0.038,3.371,0.211,4.858,1.062
					c0.336,0.192,0.426,0.476,0.452,0.753v2.063c0,0.284-0.306,0.613-0.628,0.441c-2.621-1.396-6.1-1.549-8.998,0.017
					c-0.297,0.161-0.605-0.163-0.605-0.447v-1.961c0-0.313,0.005-0.851,0.316-1.328l5.111-7.458l-4.45-0.001
					C48.611,13.943,48.393,13.747,48.391,13.456z"/>
				<path fill="#FFFFFF" d="M17.323,25.528h-2.591c-0.246-0.017-0.443-0.205-0.463-0.446l0.002-13.525
					c0-0.271,0.223-0.487,0.5-0.487l2.413-0.001c0.252,0.013,0.454,0.208,0.47,0.454v1.765h0.048
					c0.63-1.707,1.815-2.505,3.411-2.505c1.621,0,2.636,0.798,3.363,2.505c0.628-1.707,2.055-2.505,3.579-2.505
					c1.089,0,2.274,0.456,3,1.481c0.822,1.138,0.653,2.789,0.653,4.24l-0.002,8.537c0,0.269-0.224,0.486-0.5,0.486h-2.589
					c-0.261-0.017-0.465-0.226-0.465-0.485l-0.001-7.17c0-0.57,0.05-1.993-0.073-2.534c-0.193-0.911-0.774-1.167-1.523-1.167
					c-0.628,0-1.283,0.427-1.548,1.11c-0.267,0.683-0.242,1.822-0.242,2.591v7.17c0,0.269-0.224,0.486-0.5,0.486h-2.588
					c-0.261-0.017-0.465-0.226-0.465-0.485l-0.003-7.171c0-1.509,0.242-3.73-1.596-3.73c-1.863,0-1.79,2.163-1.79,3.73l-0.001,7.17
					C17.824,25.312,17.6,25.528,17.323,25.528z"/>
				<path fill="#FFFFFF" d="M65.212,10.785c3.846,0,5.927,3.359,5.927,7.628c0,4.127-2.297,7.401-5.927,7.401
					c-3.773,0-5.829-3.359-5.829-7.544C59.384,14.058,61.464,10.785,65.212,10.785z M65.237,13.546
					c-1.911,0-2.031,2.646-2.031,4.298c0,1.651-0.025,5.18,2.007,5.18c2.009,0,2.104-2.846,2.104-4.582
					c0-1.139-0.048-2.505-0.386-3.587C66.64,13.916,66.059,13.546,65.237,13.546z"/>
				<path fill="#FFFFFF" d="M76.124,25.528h-2.581c-0.259-0.017-0.465-0.226-0.465-0.485l-0.003-13.531
					c0.022-0.248,0.236-0.441,0.498-0.441l2.404-0.001c0.226,0.012,0.412,0.169,0.459,0.379v2.069h0.05
					c0.725-1.85,1.741-2.733,3.53-2.733c1.161,0,2.298,0.427,3.023,1.594c0.678,1.082,0.678,2.903,0.678,4.213v8.512
					c-0.029,0.239-0.241,0.426-0.497,0.426h-2.598c-0.239-0.015-0.433-0.195-0.461-0.426v-7.344c0-1.479,0.169-3.643-1.62-3.643
					c-0.63,0-1.21,0.427-1.499,1.082c-0.362,0.826-0.412,1.652-0.412,2.562v7.283C76.625,25.312,76.4,25.528,76.124,25.528z"/>
			</g>
		</g>
	</g>
	<path fill="#FFFFFF" d="M12.249,23.051c-0.474-0.666-0.979-1.208-0.979-2.443v-4.106c0-1.741,0.123-3.338-1.138-4.535
		c-0.994-0.971-2.643-1.313-3.903-1.313c-2.465,0-5.217,0.936-5.794,4.036c-0.061,0.329,0.175,0.502,0.386,0.55l2.512,0.276
		c0.236-0.012,0.405-0.246,0.45-0.484c0.216-1.068,1.094-1.583,2.082-1.583c0.534,0,1.141,0.2,1.455,0.685
		c0.364,0.542,0.314,1.283,0.314,1.911v0.342c-1.502,0.171-3.466,0.285-4.872,0.913C1.139,18.014,0,19.469,0,21.608
		c0,2.739,1.696,4.108,3.878,4.108c1.841,0,2.848-0.442,4.271-1.915c0.471,0.692,0.625,1.027,1.485,1.755
		c0.194,0.106,0.44,0.096,0.613-0.061l0.005,0.007c0.518-0.469,1.457-1.299,1.986-1.751C12.452,23.576,12.414,23.29,12.249,23.051z
		 M7.15,21.864c-0.413,0.741-1.067,1.198-1.794,1.198c-0.994,0-1.576-0.771-1.576-1.912c0-2.244,1.98-2.653,3.854-2.653v0.572h0.001
		C7.634,20.096,7.659,20.952,7.15,21.864z"/>
	<path fill="#FFFFFF" d="M46.215,23.051c-0.474-0.666-0.979-1.208-0.979-2.443v-4.106c0-1.741,0.123-3.338-1.138-4.535
		c-0.994-0.971-2.643-1.313-3.903-1.313c-2.465,0-5.217,0.936-5.794,4.036c-0.061,0.329,0.175,0.502,0.386,0.55l2.512,0.276
		c0.236-0.012,0.405-0.246,0.45-0.484c0.216-1.068,1.094-1.583,2.082-1.583c0.534,0,1.141,0.2,1.455,0.685
		c0.364,0.542,0.314,1.283,0.314,1.911v0.342c-1.502,0.171-3.466,0.285-4.872,0.913c-1.623,0.713-2.762,2.169-2.762,4.308
		c0,2.739,1.696,4.108,3.878,4.108c1.841,0,2.848-0.442,4.271-1.915c0.471,0.692,0.625,1.027,1.485,1.755
		c0.194,0.106,0.44,0.096,0.613-0.061l0.005,0.007c0.518-0.469,1.457-1.299,1.986-1.751C46.418,23.576,46.381,23.29,46.215,23.051z
		 M41.117,21.864c-0.413,0.741-1.067,1.198-1.794,1.198c-0.994,0-1.576-0.771-1.576-1.912c0-2.244,1.98-2.653,3.854-2.653v0.572
		h0.001C41.601,20.096,41.626,20.952,41.117,21.864z"/>
	<g>
		<path fill="#7F7F7F" d="M123.441,17.961H105.73H94.462c-0.429,0-0.819-0.175-1.101-0.458c-0.283-0.283-0.458-0.672-0.458-1.101
			v-2.851V10.7c0-0.429,0.175-0.819,0.458-1.101c0.283-0.283,0.672-0.458,1.101-0.458h28.979c0.429,0,0.819,0.175,1.101,0.458
			C124.825,9.882,125,10.272,125,10.7v2.85v2.851c0,0.429-0.175,0.819-0.458,1.101C124.259,17.785,123.87,17.961,123.441,17.961z"/>
		<g>
			<path fill="#FFFFFF" d="M99.211,13.596c-0.074-0.131-0.162-0.239-0.263-0.322c-0.049-0.041-0.1-0.075-0.152-0.103
				c0.05-0.043,0.097-0.093,0.14-0.148c0.079-0.103,0.146-0.223,0.199-0.358c0.052-0.132,0.091-0.279,0.115-0.437
				c0.024-0.155,0.037-0.317,0.037-0.48c0-0.535-0.125-0.944-0.371-1.213c-0.245-0.27-0.615-0.407-1.098-0.407h-1.394v6.547h1.323
				c0.545,0,0.97-0.175,1.262-0.519c0.291-0.342,0.438-0.855,0.438-1.525c0-0.212-0.021-0.407-0.063-0.578
				C99.342,13.876,99.284,13.723,99.211,13.596z M97.351,13.859h0.39c0.245,0,0.426,0.069,0.54,0.204
				c0.116,0.138,0.175,0.335,0.175,0.586c0,0.124-0.014,0.242-0.044,0.349c-0.029,0.105-0.071,0.197-0.127,0.274
				c-0.054,0.075-0.122,0.134-0.202,0.176c-0.079,0.042-0.175,0.064-0.283,0.064h-0.449L97.351,13.859L97.351,13.859z
				 M98.289,12.281c-0.02,0.094-0.055,0.179-0.103,0.253c-0.048,0.072-0.107,0.126-0.181,0.166c-0.073,0.04-0.166,0.06-0.276,0.06
				h-0.378v-1.502h0.378c0.11,0,0.204,0.017,0.28,0.049c0.072,0.031,0.133,0.076,0.179,0.134c0.046,0.057,0.08,0.129,0.101,0.213
				c0.023,0.087,0.034,0.188,0.034,0.302C98.323,12.072,98.312,12.181,98.289,12.281z"/>
			<polygon fill="#FFFFFF" points="101.075,10.126 100.129,10.126 100.129,16.674 102.788,16.674 102.788,15.463 101.075,15.463 			
				"/>
			<path fill="#FFFFFF" d="M105.472,14.318c0,0.243-0.014,0.452-0.042,0.622c-0.027,0.165-0.068,0.301-0.121,0.402
				c-0.05,0.098-0.111,0.165-0.184,0.208c-0.074,0.042-0.168,0.064-0.279,0.064c-0.118,0-0.216-0.025-0.291-0.074
				c-0.076-0.05-0.141-0.127-0.192-0.227c-0.054-0.104-0.092-0.236-0.115-0.39c-0.023-0.16-0.034-0.348-0.034-0.556v-4.24h-0.933
				v4.313c0,0.352,0.026,0.674,0.079,0.958c0.054,0.289,0.143,0.539,0.263,0.742c0.124,0.208,0.288,0.369,0.485,0.48
				c0.198,0.11,0.436,0.166,0.709,0.166c0.244,0,0.468-0.056,0.666-0.166c0.198-0.11,0.367-0.276,0.505-0.492
				c0.134-0.212,0.238-0.48,0.31-0.797c0.071-0.314,0.107-0.681,0.107-1.09v-4.114h-0.933L105.472,14.318L105.472,14.318z"/>
			<rect x="107.287" y="13.311" fill="#FFFFFF" width="2.1" height="1.24"/>
			<path fill="#FFFFFF" d="M112.601,13.775c-0.045-0.078-0.093-0.142-0.144-0.192c0.07-0.032,0.138-0.072,0.202-0.12
				c0.117-0.087,0.219-0.203,0.304-0.345c0.083-0.139,0.148-0.306,0.194-0.497c0.045-0.189,0.068-0.407,0.068-0.646
				c0-0.334-0.036-0.62-0.109-0.852c-0.072-0.236-0.179-0.432-0.316-0.581c-0.137-0.149-0.305-0.258-0.501-0.323
				c-0.189-0.062-0.402-0.094-0.633-0.094H110.4v6.547h0.933V14.04h0.061c0.108,0,0.2,0.04,0.281,0.123
				c0.085,0.088,0.152,0.222,0.202,0.401l0.571,2.045l0.019,0.065h1.077l-0.684-2.253C112.774,14.143,112.687,13.926,112.601,13.775
				z M111.333,11.308h0.25c0.228,0,0.399,0.06,0.508,0.178c0.109,0.118,0.164,0.322,0.164,0.607c0,0.139-0.017,0.262-0.051,0.367
				c-0.034,0.105-0.08,0.189-0.14,0.257c-0.059,0.068-0.131,0.119-0.215,0.153c-0.086,0.035-0.184,0.052-0.291,0.052h-0.226V11.308z
				"/>
			<path fill="#FFFFFF" d="M116.25,10.126h-1.206l-1.214,6.437l-0.021,0.11h0.93l0.23-1.256h1.275l0.224,1.256h1.019l-1.222-6.474
				L116.25,10.126z M116.041,14.256h-0.855l0.43-2.387L116.041,14.256z"/>
			<polygon fill="#FFFFFF" points="119.655,10.126 119.01,12.13 118.817,12.832 118.627,12.157 118.011,10.126 116.984,10.126 
				118.336,14.353 118.336,16.674 119.282,16.674 119.282,14.343 120.648,10.126 			"/>
		</g>
	</g>
</g>
<rect x="0" y="0" fill="none" width="125" height="40"/>
</svg>
