<?xml version="1.0" encoding="utf-8"?>
<!-- Generator: Adobe Illustrator 20.1.0, SVG Export Plug-In . SVG Version: 6.00 Build 0)  -->
<svg version="1.1" id="logos" xmlns="http://www.w3.org/2000/svg" xmlns:xlink="http://www.w3.org/1999/xlink" x="0px" y="0px"
	 viewBox="0 0 125 40" enable-background="new 0 0 125 40" xml:space="preserve">
<g>
	<g>
		<rect y="0" fill="#FE0000" width="40" height="40"/>
		<g>
			<rect x="0.587" y="0.587" width="38.825" height="31.485"/>
			<rect x="0.587" y="32.733" width="38.825" height="6.68"/>
		</g>
		<path fill="#FE0000" d="M14.976,10.972v1.838c-0.409-0.383-1.001-0.625-1.661-0.625c-1.235,0-2.236,0.842-2.236,1.881
			s1.001,1.881,2.236,1.881c0.66,0,1.252-0.242,1.661-0.625v0.53h1.411v-4.879H14.976z M13.744,15.023
			c-0.706,0-1.278-0.439-1.278-0.98c0-0.541,0.572-0.98,1.278-0.98s1.278,0.439,1.278,0.98
			C15.022,14.584,14.45,15.023,13.744,15.023z"/>
		<rect x="16.718" y="12.23" fill="#FE0000" width="1.41" height="3.581"/>
		<ellipse fill="#FE0000" cx="17.412" cy="11.511" rx="0.716" ry="0.539"/>
		<path fill="#FE0000" d="M21.366,12.23c-1.233,0-2.819,0.364-2.819,1.229s1.805,1.271,2.753,1.271c1.233,0,0.793,0.428,0.066,0.428
			s-1.696-0.18-2.555-0.743c-0.352,0.36-0.33,1.396,2.379,1.396c1.256,0,2.643-0.45,2.643-1.194s-1.211-1.168-2.511-1.248
			c-1.3-0.081-0.991-0.418-0.022-0.418c0.969,0,1.938,0.36,2.269,0.676C23.811,13.221,23.458,12.23,21.366,12.23z"/>
		<polygon fill="#FE0000" points="29.515,15.811 27.228,13.741 29.163,12.635 27.599,12.635 25.419,13.868 25.419,10.972 
			24.009,10.972 24.009,15.811 25.419,15.811 25.419,14.775 26.095,14.388 27.687,15.811 		"/>
		<path fill="#FE0000" d="M8.612,19.797v2.793c0,0-0.639,0.946-2.026,0.946c-1.454,0-1.432-1.059-1.432-1.441s0-2.297,0-2.297H3.172
			c0,0,0,1.599,0,2.297s0.507,2.703,2.93,2.703c0.913,0,1.739-0.385,2.511-0.862v0.727h1.938v-4.865H8.612z"/>
		<path fill="#FE0000" d="M13.018,24.685v-2.793c0,0,0.639-0.946,2.026-0.946c1.454,0,1.432,1.059,1.432,1.441
			c0,0.383,0,2.297,0,2.297h1.982c0,0,0-1.599,0-2.297c0-0.698-0.507-2.703-2.93-2.703c-0.913,0-1.739,0.385-2.511,0.862V19.82
			h-1.938v4.865H13.018z"/>
		<path fill="#FE0000" d="M31.322,24.685v-2.793c0,0,0.639-0.946,2.026-0.946c1.454,0,1.432,1.059,1.432,1.441
			c0,0.383,0,2.297,0,2.297h1.982c0,0,0-1.599,0-2.297c0-0.698-0.507-2.703-2.93-2.703c-0.913,0-1.739,0.385-2.511,0.862V19.82
			h-1.938v4.865H31.322z"/>
		<rect x="19.009" y="19.797" fill="#FE0000" width="1.916" height="4.887"/>
		<ellipse fill="#FE0000" cx="19.967" cy="18.829" rx="0.958" ry="0.788"/>
		<path fill="#FE0000" d="M25.186,19.457c-2.148,0-3.889,1.17-3.889,2.614c0,1.444,1.741,2.614,3.889,2.614
			c2.148,0,3.889-1.17,3.889-2.614C29.075,20.627,27.334,19.457,25.186,19.457z M25.176,23.446c-1.01,0-1.828-0.64-1.828-1.43
			c0-0.79,0.819-1.43,1.828-1.43c1.01,0,1.828,0.64,1.828,1.43C27.004,22.806,26.186,23.446,25.176,23.446z"/>
		<polygon fill="#FE0000" points="11.3,35.721 11.101,36.216 11.96,36.216 11.432,36.937 11.96,36.937 12.445,36.216 12.93,36.216 
			13.128,35.721 		"/>
		<g>
			<polygon fill="#FE0000" points="13.122,35.495 13.524,35.495 13.756,35.105 13.356,35.105 			"/>
			<polygon fill="#FE0000" points="13.152,35.105 11.802,35.105 11.432,35.495 12.92,35.495 			"/>
			<polygon fill="#FE0000" points="13.96,35.105 13.726,35.495 14.082,35.495 14.302,35.105 			"/>
		</g>
		<polygon fill="#FE0000" points="14.699,35.721 13.568,36.073 13.439,36.505 13.902,36.346 13.726,36.937 14.087,36.937 
			14.304,36.208 14.699,36.073 		"/>
		<polygon fill="#FE0000" points="17.239,36.937 16.452,36.119 17.151,35.345 17.151,35.105 15.727,35.105 15.507,35.495 
			16.446,35.495 15.051,36.937 15.712,36.937 16.186,36.413 16.711,36.937 		"/>
		<polygon fill="#FE0000" points="17.65,35.883 18.282,35.105 20,35.105 20,35.458 18.693,36.937 17.959,36.937 19.31,35.495 
			18.532,35.495 18.209,35.871 		"/>
		<polygon fill="#FE0000" points="20.969,35.105 20.969,35.495 21.85,35.495 21.41,36.562 20.602,36.562 20.455,36.937 
			22.335,36.937 22.335,36.577 21.938,36.577 22.335,35.495 22.335,35.105 		"/>
		<polygon fill="#FE0000" points="23.436,35.601 24.714,35.601 24.905,35.105 23.612,35.105 		"/>
		<polygon fill="#FE0000" points="22.878,36.937 24.493,36.937 24.655,36.502 22.952,36.502 		"/>
		<polygon fill="#FE0000" points="26.931,35.511 26.931,35.18 26.417,35.18 26.417,35.511 25.374,35.511 25.374,35.856 
			26.021,35.856 24.978,36.937 25.639,36.937 26.211,36.329 26.079,36.937 26.52,36.937 26.769,35.856 27.313,35.856 27.313,35.511 
					"/>
		<polygon fill="#FE0000" points="27.841,35.601 28.649,35.601 28.811,35.18 27.974,35.18 		"/>
		<polygon fill="#FE0000" points="28.678,35.871 27.768,36.937 28.326,36.937 29.222,35.871 		"/>
	</g>
	<rect y="0" fill="none" width="125" height="40"/>
</g>
</svg>
