<svg xmlns="http://www.w3.org/2000/svg" width="600.38" height="63.98" viewBox="0 0 600.38 63.98"><path d="M24,5.26c-7.21,0-14.9,2.36-14.9,8.1,0,5.13,7,6.61,15.39,7.76C35.87,22.61,47,24.5,47,35.16S34.82,49.2,24,49.2c-10,0-19.6-3-24-10.93l5.83-2.83C9.47,41,17.09,43.73,24,43.73s16-1.82,16-8.77c.08-5.87-7.85-7.56-16.36-8.64C12.79,24.9,2.19,22.81,2.19,13.23,2,3.37,14.09,0,23.89,0c8.42,0,16.44,1.42,21.46,8.57L40,11.34C36.92,7.22,30.36,5.33,24,5.26Z" style="fill:#fff"/><path d="M72.93,14.17c12.23,0,20.81,7.15,20.81,17.48,0,10.12-8.75,17.21-20.81,17.21S52.21,41.77,52.21,31.65C52.21,21.33,61,14.17,72.93,14.17ZM73,19.23c-8.18,0-14.17,5-14.17,12.42,0,7,5.91,12,14.09,12s14.17-5,14.25-12C87.19,24.23,81,19.23,73,19.23Z" style="fill:#fff"/><path d="M99.72,14.85h6.07l.32,5.33a17.59,17.59,0,0,1,13.68-5.8c10.12,0,17.57,5.67,17.57,15.45V48.25h-6.64V29.9c0-6.41-4.53-10.39-12.15-10.39-7.29.07-12.31,4.86-12.31,10.86V48.25H99.72V14.85Z" style="fill:#fff"/><path d="M155,64h-7.13l8.34-16.2L140.12,14.92h7.53l7.85,17.34,4.37,9.52,4.29-9.45L173,14.92h7.29Z" style="fill:#fff"/><path d="M230.94,32.41h-1.46l-20.57-23V48.25h-7V1h8.42l19.92,23.29L250.05,1h8.42V48.25h-7V9.52Z" style="fill:#fff"/><path d="M296.14,48.25l-.32-5.33c-3.56,4-8.34,5.8-13.93,5.87-10.2,0-17.41-5.74-17.41-15.45V14.92h6.64V33.27c0,6.41,4.53,10.39,12.15,10.39,7.29-.07,12.31-4.86,12.31-10.87V14.92h6.64V48.25h-6.07Z" style="fill:#fff"/><path d="M335.25,22.34c-3.48-2.63-7.13-3.24-11.26-3.24-5.51-.07-10,1.55-9.88,4.86s4.94,4.45,10,4.93c7.29.74,17,2,16.84,10.19-.16,6.68-7.77,10-16.76,10-6.72,0-13.36-1.55-17.89-6.28l3.81-3.85c3.56,3.64,9.31,5.13,14.25,5.13,4.37,0,10-1.15,10.12-5.2.08-3.64-4.62-4.72-10.77-5.33-7.69-.81-16-2.5-16-9.58s8.5-9.85,16.19-9.79c6,0,10.93,1.21,15.22,4.45l-3.81,3.64Z" style="fill:#fff"/><path d="M354,4.79c0,4.79-8.75,4.79-8.75-.07S354-.07,354,4.79Zm-7.77,43.46h6.64V14.78h-6.64Z" style="fill:#fff"/><path d="M395,43.73a22.62,22.62,0,0,1-14.9,5.13c-11.42,0-20.89-6.14-20.89-17.28s9.31-17.28,20.89-17.28a22.15,22.15,0,0,1,14.49,5l-4.21,3.64a16.22,16.22,0,0,0-10.12-3.37c-7.93,0-14.33,4.52-14.33,12,0,7.76,6.48,12,14.25,12a16,16,0,0,0,10.45-3.51l4.45,3.71Z" style="fill:#fff"/><path d="M440.45,5.27c-7.21,0-14.9,2.36-14.9,8.1,0,5.13,7,6.61,15.38,7.76,11.34,1.48,22.51,3.37,22.51,14s-12.23,14-23.08,14c-10,0-19.6-3-24-10.93l5.83-2.83c3.64,5.6,11.26,8.3,18.22,8.3s16-1.82,16-8.77c.08-5.87-7.85-7.56-16.36-8.64-10.93-1.42-21.54-3.51-21.54-13.09C418.43,3.38,430.49,0,440.29,0c8.42,0,16.44,1.42,21.46,8.57l-5.34,2.77C453.33,7.22,446.77,5.33,440.45,5.27Z" style="fill:#fff"/><path d="M476,1.08V20.45c3.4-4.39,8.75-5.87,13.85-5.94,11.26,0,16.76,6.21,16.76,15.39V48.25H500V30c0-6.55-4-10.26-11.34-10.26S476,24.5,476,30.57V48.25h-6.64V1H476Z" style="fill:#fff"/><path d="M532.49,14.17c12.23,0,20.81,7.15,20.81,17.48,0,10.12-8.75,17.21-20.81,17.21s-20.73-7.09-20.73-17.21C511.76,21.33,520.59,14.17,532.49,14.17Zm.08,5.06c-8.18,0-14.17,5-14.17,12.42,0,7,5.91,12,14.09,12s14.17-5,14.25-12C546.74,24.23,540.59,19.23,532.57,19.23Z" style="fill:#fff"/><path d="M558.43,15.05h6.32l.32,6.41c3.16-4.45,9.07-7,15.39-7,11.5.2,19.92,7,19.92,17.21C600.38,42.18,592,49,580.05,49c-5.67,0-12-2-15.14-6.75V64h-6.48Zm35.3,16.74c0-7.49-5.91-11.95-14.09-11.95-8.34,0-14,5.13-14,11.95s5.91,11.94,14,12S593.74,39.28,593.74,31.79Z" style="fill:#fff"/></svg>