<?xml version="1.0" encoding="utf-8"?>
<!-- Generator: Adobe Illustrator 20.1.0, SVG Export Plug-In . SVG Version: 6.00 Build 0)  -->
<svg version="1.1" id="logos" xmlns="http://www.w3.org/2000/svg" xmlns:xlink="http://www.w3.org/1999/xlink" x="0px" y="0px"
	 viewBox="0 0 125 40" enable-background="new 0 0 125 40" xml:space="preserve">
<g>
	<rect y="0" fill="#C4AB5F" width="125" height="40"/>
	<g>
		<path fill="#FFFFFF" d="M23.483,14.988c-0.36,0-0.709,0.002-1.057-0.003c-0.046-0.001-0.092-0.04-0.136-0.065
			c-0.054-0.031-0.103-0.07-0.158-0.098c-0.057-0.03-0.122-0.123-0.094-0.175c0.04-0.073,0-0.116-0.029-0.17
			c-0.07-0.133-0.148-0.263-0.205-0.402c-0.052-0.128-0.081-0.266-0.122-0.407c-0.076,0.001-0.081,0.062-0.07,0.117
			c0.021,0.112,0.057,0.221,0.079,0.333c0.017,0.088,0.023,0.178,0.034,0.268c-0.012,0.003-0.024,0.005-0.036,0.008
			c-0.015-0.03-0.031-0.059-0.043-0.09c-0.019-0.048-0.024-0.108-0.055-0.145c-0.103-0.123-0.087-0.266-0.095-0.41
			c-0.007-0.112-0.048-0.222-0.07-0.334c-0.01-0.05-0.026-0.104-0.014-0.151c0.047-0.183,0.12-0.355,0.245-0.5
			c0.095-0.111,0.169-0.224,0.2-0.378c0.031-0.154,0.112-0.297,0.243-0.409c0.075-0.064,0.119-0.163,0.179-0.248
			c-0.298,0.004-1.25,0.478-1.76,0.886c-0.521,0.418-0.963,0.903-1.329,1.466c0.009-0.03,0.013-0.062,0.026-0.089
			c0.59-1.175,1.461-2.054,2.697-2.542c0.556-0.219,1.136-0.334,1.735-0.357c0.649-0.025,1.291,0.017,1.916,0.209
			c1.334,0.41,2.344,1.232,3.062,2.421c0.054,0.089,0.101,0.182,0.15,0.273c0.003,0.006-0.005,0.018-0.01,0.038
			c-0.08-0.115-0.153-0.227-0.232-0.334c-0.884-1.185-2.057-1.907-3.51-2.168c-0.394-0.071-0.778-0.011-1.133,0.185
			c-0.114,0.063-0.217,0.138-0.3,0.25c0.073,0.078,0.164,0.083,0.248,0.097c0.145,0.025,0.288,0.043,0.371,0.193
			c0.018,0.033,0.087,0.038,0.132,0.056c0.016-0.041,0.039-0.081,0.046-0.123c0.011-0.069,0.015-0.138,0.117-0.135
			c-0.027-0.092-0.196-0.101-0.115-0.23c0.152-0.008,0.294,0.017,0.411,0.131c0.07,0.068,0.144,0.04,0.214-0.017
			c0.181,0.118,0.358,0.234,0.544,0.355c-0.051,0.069-0.118,0.067-0.183,0.06c-0.072-0.008-0.144-0.031-0.216-0.031
			c-0.039,0-0.102,0.024-0.112,0.053c-0.011,0.031,0.015,0.09,0.044,0.119c0.041,0.042,0.099,0.069,0.182,0.124
			c-0.122,0.027-0.21,0.046-0.314,0.068c-0.019,0.093-0.076,0.173-0.178,0.233c-0.055,0.032-0.088,0.115-0.112,0.182
			c-0.068,0.193-0.2,0.322-0.376,0.419c-0.154,0.085-0.165,0.137-0.096,0.307c0.094,0.23,0.094,0.23,0.056,0.397
			c-0.048-0.059-0.09-0.101-0.12-0.15c-0.021-0.034-0.028-0.078-0.04-0.118c-0.062-0.197-0.07-0.201-0.271-0.161
			c-0.04,0.008-0.084,0.012-0.123,0.004c-0.11-0.022-0.214-0.028-0.318,0.033c-0.03,0.018-0.08,0.007-0.12,0.001
			c-0.24-0.037-0.404,0.041-0.516,0.255c-0.036,0.069-0.063,0.142-0.09,0.215c-0.083,0.225,0.046,0.389,0.163,0.557
			c0.006,0.008,0.015,0.014,0.024,0.019c0.101,0.053,0.387-0.025,0.453-0.126c0.039-0.06,0.072-0.125,0.111-0.194
			c0.068,0.016,0.132,0.031,0.204,0.048C23.57,14.73,23.53,14.85,23.483,14.988z"/>
		<path fill="#FFFFFF" d="M25.395,20.221c-0.059,0.141-0.141,0.259-0.296,0.318c0.013,0.09-0.022,0.149-0.111,0.188
			c-0.092,0.041-0.088,0.05-0.076,0.148c-0.135-0.019-0.196-0.088-0.18-0.212c0.009-0.067,0.028-0.133,0.048-0.197
			c0.026-0.082,0.062-0.157,0.036-0.252c-0.012-0.043,0.023-0.111,0.057-0.153c0.121-0.151,0.184-0.323,0.226-0.508
			c0.022-0.098,0.038-0.194,0.1-0.285c0.047-0.069,0.031-0.181,0.044-0.273c0.009-0.066,0.011-0.135,0.028-0.199
			c0.015-0.058,0.077-0.106,0.04-0.173c-0.044-0.081-0.092-0.16-0.145-0.235c-0.02-0.028-0.061-0.039-0.089-0.062
			c-0.103-0.086-0.204-0.174-0.326-0.277c1.016,0,2.007,0,3.004,0c0.002,0.033-0.003,0.074,0.009,0.108
			c0.022,0.06-0.009,0.096-0.036,0.142c-0.051,0.083-0.094,0.172-0.141,0.258c-0.04,0.073-0.076,0.149-0.126,0.214
			c-0.024,0.031-0.076,0.057-0.116,0.058c-0.209,0.002-0.355,0.097-0.451,0.279c-0.122,0.23-0.303,0.408-0.513,0.558
			c-0.054,0.039-0.115,0.071-0.177,0.098c-0.069,0.03-0.133,0.052-0.127,0.151c0.002,0.029-0.041,0.08-0.072,0.088
			c-0.173,0.042-0.334,0.111-0.489,0.197C25.488,20.214,25.448,20.212,25.395,20.221z"/>
		<path fill="#FFFFFF" d="M19.199,19.185c1.121,1.69,2.689,2.601,4.723,2.629c2.025,0.028,3.614-0.835,4.789-2.487
			c-0.638,1.321-2.279,2.771-4.482,2.857C21.786,22.28,20.02,20.935,19.199,19.185z"/>
		<path fill="#FFFFFF" d="M26.538,17.496c0.04-0.055,0.067-0.092,0.102-0.141c-0.119-0.174-0.237-0.351-0.361-0.524
			c-0.02-0.028-0.067-0.045-0.104-0.05c-0.055-0.008-0.113-0.002-0.174-0.002c-0.049,0.129-0.021,0.254-0.026,0.375
			c-0.005,0.119-0.023,0.244,0.093,0.34c-0.25,0-0.501,0-0.769,0c0.126-0.109,0.106-0.247,0.106-0.38
			c0-0.416-0.001-0.833,0.001-1.249c0.001-0.124,0.011-0.249-0.095-0.353c0.036-0.006,0.056-0.012,0.076-0.012
			c0.427,0.001,0.854,0,1.28,0.007c0.091,0.002,0.186,0.025,0.272,0.058c0.375,0.14,0.493,0.63,0.219,0.925
			c-0.083,0.089-0.19,0.156-0.297,0.242c0.168,0.246,0.339,0.498,0.521,0.766C27.093,17.496,26.825,17.496,26.538,17.496z
			 M25.986,16.41c0.161,0,0.312,0.011,0.46-0.005c0.071-0.008,0.15-0.053,0.202-0.104c0.135-0.134,0.073-0.359-0.115-0.385
			c-0.177-0.024-0.359-0.005-0.546-0.005C25.986,16.081,25.986,16.239,25.986,16.41z"/>
		<path fill="#FFFFFF" d="M15.336,17.497c0.146-0.104,0.129-0.236,0.128-0.365c-0.002-0.416-0.001-0.832,0-1.249
			c0-0.128,0.015-0.259-0.105-0.384c0.211,0,0.392-0.006,0.572,0.004c0.042,0.002,0.087,0.051,0.12,0.088
			c0.297,0.334,0.592,0.671,0.887,1.007c0.013,0.015,0.029,0.027,0.058,0.055c0.006-0.049,0.013-0.082,0.014-0.114
			c0.001-0.234,0-0.468,0.001-0.702c0-0.114,0.012-0.229-0.102-0.33c0.226,0,0.427,0,0.65,0c-0.109,0.106-0.102,0.228-0.102,0.351
			c0.002,0.484,0.001,0.968,0.001,1.452c0,0.057,0,0.113,0,0.194c-0.145,0-0.284,0.006-0.42-0.004
			c-0.037-0.003-0.073-0.052-0.104-0.085c-0.307-0.332-0.614-0.665-0.92-0.999c-0.024-0.026-0.041-0.059-0.061-0.088
			c-0.011,0.006-0.022,0.011-0.034,0.017c-0.005,0.032-0.013,0.064-0.013,0.096c-0.001,0.229,0,0.458-0.001,0.687
			c-0.001,0.129-0.019,0.261,0.116,0.371C15.785,17.497,15.576,17.497,15.336,17.497z"/>
		<path fill="#FFFFFF" d="M12.366,15.506c0.286,0,0.529,0,0.795,0c-0.116,0.117-0.098,0.249-0.098,0.377
			c0,0.276,0.001,0.552,0,0.828c-0.001,0.161,0.033,0.307,0.2,0.371c0.183,0.071,0.368,0.073,0.535-0.049
			c0.075-0.055,0.111-0.138,0.112-0.231c0.003-0.37,0.007-0.74,0.001-1.109c-0.001-0.06-0.047-0.12-0.076-0.188
			c0.246,0,0.489,0,0.76,0c-0.122,0.118-0.097,0.254-0.097,0.385c0,0.266,0,0.531-0.001,0.797c0,0.068-0.004,0.135-0.009,0.203
			c-0.024,0.319-0.19,0.523-0.502,0.596c-0.34,0.08-0.682,0.087-1.019-0.01c-0.325-0.093-0.47-0.289-0.475-0.629
			c-0.005-0.312,0-0.625-0.002-0.938C12.488,15.774,12.527,15.627,12.366,15.506z"/>
		<path fill="#FFFFFF" d="M28.274,17.389c-0.025,0.044-0.053,0.095-0.081,0.146c-0.01-0.007-0.02-0.014-0.031-0.021
			c0-0.214,0-0.429,0-0.653c0.227,0.118,0.454,0.223,0.704,0.255c0.097,0.012,0.197,0.017,0.295,0.011
			c0.104-0.007,0.173-0.07,0.178-0.146c0.006-0.095-0.056-0.142-0.134-0.169c-0.123-0.042-0.25-0.071-0.372-0.116
			c-0.141-0.053-0.282-0.108-0.413-0.18c-0.207-0.115-0.288-0.304-0.274-0.537c0.013-0.219,0.139-0.353,0.329-0.435
			c0.299-0.129,0.608-0.123,0.919-0.057c0.041,0.009,0.081,0.018,0.12,0.033c0.113,0.043,0.225,0.083,0.334-0.061
			c0,0.221,0,0.41,0,0.6c-0.181-0.054-0.354-0.11-0.529-0.156c-0.085-0.022-0.174-0.03-0.262-0.036
			c-0.056-0.004-0.114,0.005-0.17,0.014c-0.066,0.01-0.134,0.043-0.129,0.112c0.004,0.052,0.049,0.114,0.093,0.146
			c0.057,0.041,0.131,0.061,0.2,0.084c0.138,0.046,0.28,0.081,0.416,0.132c0.152,0.056,0.296,0.129,0.396,0.265
			c0.18,0.244,0.113,0.619-0.139,0.787c-0.206,0.136-0.439,0.165-0.674,0.144c-0.201-0.018-0.398-0.069-0.597-0.108
			C28.403,17.432,28.355,17.413,28.274,17.389z"/>
		<path fill="#FFFFFF" d="M23.322,16.31c0.209,0,0.411,0.007,0.612-0.004c0.059-0.003,0.115-0.06,0.172-0.092
			c0,0.192,0,0.38,0,0.599c-0.099-0.13-0.217-0.123-0.337-0.12c-0.145,0.004-0.29,0.001-0.446,0.001c0,0.134,0,0.256,0,0.391
			c0.037,0.004,0.076,0.013,0.115,0.013c0.219,0.001,0.437,0.001,0.656,0c0.138,0,0.282,0.027,0.393-0.111c0,0.183,0,0.342,0,0.51
			c-0.619,0-1.23,0-1.866,0c0.133-0.107,0.114-0.24,0.114-0.369c0-0.437-0.001-0.874,0.001-1.312
			c0.001-0.105,0.001-0.208-0.09-0.286c0.115-0.039,1.637-0.049,1.841-0.014c0,0.153,0,0.307,0,0.485
			C24.368,15.87,24.221,15.9,24.08,15.9c-0.249-0.001-0.498,0-0.758,0C23.322,16.04,23.322,16.166,23.322,16.31z"/>
		<path fill="#FFFFFF" d="M31.334,15.498c0.208,0,0.379,0.005,0.55-0.002c0.092-0.004,0.14,0.032,0.178,0.114
			c0.126,0.268,0.26,0.532,0.391,0.798c0.156,0.317,0.311,0.635,0.466,0.953c0.02,0.041,0.036,0.084,0.059,0.137
			c-0.268,0-0.521,0-0.789,0c0.033-0.053,0.06-0.095,0.087-0.138c-0.002-0.01-0.003-0.02-0.005-0.03
			c-0.039-0.153-0.127-0.214-0.293-0.199c-0.207,0.018-0.416,0.004-0.624,0.004c-0.078,0-0.151-0.011-0.192,0.09
			c-0.036,0.089-0.066,0.163,0.022,0.235c0.007,0.005,0.007,0.018,0.014,0.037c-0.223,0-0.442,0-0.68,0
			c0.081-0.172,0.156-0.335,0.234-0.497c0.198-0.412,0.395-0.825,0.597-1.235C31.39,15.679,31.414,15.603,31.334,15.498z
			 M32.037,16.78c-0.115-0.247-0.222-0.478-0.345-0.742c-0.123,0.267-0.229,0.498-0.342,0.742
			C31.589,16.78,31.803,16.78,32.037,16.78z"/>
		<path fill="#FFFFFF" d="M20.72,17.505c-0.309-0.663-0.614-1.317-0.924-1.982c0.137-0.044,0.26-0.02,0.381-0.024
			c0.124-0.004,0.249-0.001,0.385-0.001c-0.025,0.067-0.063,0.121-0.06,0.173c0.003,0.059,0.043,0.115,0.068,0.172
			c0.12,0.271,0.239,0.542,0.36,0.812c0.012,0.027,0.029,0.053,0.057,0.104c0.176-0.382,0.342-0.743,0.511-1.108
			c-0.027-0.044-0.053-0.087-0.088-0.142c0.218,0,0.422,0,0.646,0c-0.022,0.057-0.038,0.108-0.06,0.157
			c-0.272,0.578-0.547,1.155-0.816,1.735c-0.036,0.077-0.076,0.114-0.164,0.107C20.924,17.499,20.831,17.505,20.72,17.505z"/>
		<path fill="#FFFFFF" d="M35.384,16.997c0,0.177,0,0.335,0,0.5c-0.596,0-1.183,0-1.797,0c0.131-0.113,0.107-0.251,0.108-0.384
			c0.001-0.427,0-0.854,0.001-1.28c0-0.114,0.012-0.23-0.109-0.327c0.27,0,0.512,0,0.784,0c-0.12,0.115-0.098,0.246-0.098,0.372
			c0,0.344,0,0.687,0,1.031c0,0.056,0,0.112,0,0.189c0.082,0,0.148,0,0.214,0c0.208,0,0.416,0,0.625,0
			C35.252,17.098,35.252,17.098,35.384,16.997z"/>
		<path fill="#FFFFFF" d="M18.414,15.506c0.289,0,0.536,0,0.811,0c-0.119,0.099-0.108,0.215-0.108,0.329
			c0.001,0.447,0.002,0.895-0.001,1.342c-0.001,0.112,0.002,0.217,0.11,0.316c-0.275,0-0.525,0-0.791,0
			c0.124-0.121,0.095-0.27,0.095-0.413c0.001-0.427-0.001-0.853,0.001-1.28C18.532,15.7,18.534,15.603,18.414,15.506z"/>
		<path fill="#FFFFFF" d="M24.148,14.445c0.11-0.005,0.203-0.02,0.267,0.076c0.011,0.016,0.034,0.036,0.049,0.034
			c0.155-0.02,0.244,0.127,0.381,0.154c-0.092-0.012-0.182,0.005-0.273-0.053C24.444,14.575,24.3,14.519,24.148,14.445z"/>
		<path fill="#FFFFFF" d="M25.016,14.735c0.122-0.026,0.205,0.036,0.315,0.095c-0.097,0.03-0.17,0.058-0.247,0.074
			C25.02,14.918,25,14.869,25.016,14.735z"/>
	</g>
	<g>
		<path fill="#FFFFFF" d="M48.401,7.153h2.542l-0.378,0.491v3.545c0,0.787,0.419,1.18,1.256,1.18c0.843,0,1.265-0.386,1.265-1.157
			V7.644l-0.356-0.491h2.537l-0.378,0.491v3.567c0,1.708-1.021,2.563-3.063,2.563c-2.045,0-3.067-0.868-3.067-2.603V7.622
			L48.401,7.153z"/>
		<path fill="#FFFFFF" d="M57.393,7.153h1.917l3.145,3.761V7.622l-0.357-0.468h2.151l-0.378,0.491v6.026h-1.374l-3.331-3.828v3.337
			l0.377,0.491h-2.151l0.361-0.482V7.676L57.393,7.153z"/>
		<path fill="#FFFFFF" d="M66.856,7.153h2.575l-0.36,0.468v5.581l0.36,0.468h-2.575l0.382-0.491V7.644L66.856,7.153z"/>
		<path fill="#FFFFFF" d="M71.716,7.153h2.532L73.893,7.64l1.463,3.554l1.549-3.572l-0.378-0.468h2.155v0.022l-2.847,6.44h-1.251
			L71.716,7.153z"/>
		<path fill="#FFFFFF" d="M80.908,7.153h5.778v1.748l-0.483-0.405H83.08v1.279h1.985l0.463-0.405v2.085l-0.463-0.405H83.08v1.279
			h3.123l0.483-0.405v1.748h-5.778l0.382-0.491V7.644L80.908,7.153z"/>
		<path fill="#FFFFFF" d="M88.996,7.153h3.844c1.562,0,2.342,0.657,2.342,1.973c0,1.075-0.464,1.732-1.392,1.973l1.667,2.576h-2.724
			l0.378-0.491l-1.158-1.838h-0.802v1.838l0.378,0.491h-2.533l0.36-0.446V7.595L88.996,7.153z M91.151,8.5v1.612h1.243
			c0.631,0,0.947-0.276,0.95-0.829c0-0.522-0.324-0.784-0.972-0.784H91.151z"/>
		<path fill="#FFFFFF" d="M102.821,7.05v2.094c-0.99-0.465-1.854-0.698-2.593-0.698c-0.452,0-0.686,0.134-0.7,0.401
			c0,0.27,0.597,0.588,1.791,0.955c1.207,0.459,1.812,1.114,1.812,1.963c0,1.339-0.851,2.009-2.55,2.009
			c-0.665,0-1.461-0.174-2.389-0.522l-0.471,0.545v-2.337c0.964,0.627,1.896,0.941,2.796,0.941c0.48,0,0.721-0.146,0.721-0.437
			c0-0.276-0.467-0.56-1.4-0.851c-0.777-0.255-1.353-0.577-1.727-0.964c-0.288-0.357-0.433-0.779-0.433-1.266
			c0-0.634,0.33-1.127,0.988-1.482c0.47-0.219,1.038-0.329,1.706-0.329c0.506,0,1.164,0.146,1.973,0.437L102.821,7.05z"/>
		<path fill="#FFFFFF" d="M107.294,7.149h2.07l3,6.526h-2.559l0.36-0.495l-0.275-0.671h-2.936l-0.318,0.671l0.36,0.495h-2.219
			l2.724-6.035L107.294,7.149z M107.379,11.319h2.049l-1.014-2.333L107.379,11.319z"/>
		<path fill="#FFFFFF" d="M114.585,7.153h2.532l-0.355,0.491v4.684h2.889l0.53-0.401v1.748h-5.596l0.382-0.491v-5.54L114.585,7.153z
			"/>
	</g>
	<g>
		<path fill="#FFFFFF" d="M51.812,23.684l-1.824-3.652v3.135l0.398,0.509h-2.189c0-0.006,0.146-0.188,0.437-0.545v-5.504
			l-0.335-0.473h2.134l1.973,3.945l1.893-3.945h2.223l-0.411,0.504v5.629l0.318,0.396h-2.499l0.39-0.455v-3.013l-1.655,3.468H51.812
			z"/>
		<path fill="#FFFFFF" d="M58.7,17.153h2.542l-0.378,0.491v3.544c0,0.787,0.419,1.18,1.256,1.18c0.843,0,1.265-0.386,1.265-1.157
			v-3.567l-0.356-0.491h2.537l-0.378,0.491v3.567c0,1.709-1.021,2.563-3.063,2.563c-2.044,0-3.067-0.867-3.067-2.603v-3.549
			L58.7,17.153z"/>
		<path fill="#FFFFFF" d="M72.805,17.05v2.094c-0.99-0.465-1.854-0.698-2.593-0.698c-0.452,0-0.686,0.134-0.7,0.401
			c0,0.27,0.597,0.588,1.791,0.955c1.207,0.459,1.812,1.113,1.812,1.963c0,1.34-0.851,2.009-2.55,2.009
			c-0.665,0-1.461-0.174-2.389-0.522l-0.471,0.545v-2.337c0.964,0.627,1.896,0.941,2.796,0.941c0.48,0,0.721-0.146,0.721-0.438
			c0-0.276-0.467-0.56-1.4-0.851c-0.777-0.256-1.353-0.577-1.727-0.964c-0.288-0.357-0.433-0.779-0.433-1.266
			c0-0.634,0.33-1.127,0.988-1.482c0.47-0.219,1.038-0.329,1.706-0.329c0.506,0,1.164,0.146,1.973,0.437L72.805,17.05z"/>
		<path fill="#FFFFFF" d="M75.713,17.153h2.575l-0.36,0.468v5.581l0.36,0.468h-2.575l0.382-0.49v-5.536L75.713,17.153z"/>
		<path fill="#FFFFFF" d="M86.982,23.215c-0.689,0.379-1.483,0.568-2.38,0.568c-2.455,0-3.683-1.137-3.683-3.41
			c0-2.188,1.214-3.283,3.641-3.283c0.613,0,1.276,0.126,1.989,0.378l0.433-0.414v2.139c-0.783-0.474-1.588-0.711-2.414-0.711
			c-1.162,0-1.743,0.658-1.743,1.972c0,1.294,0.579,1.941,1.739,1.941c1.101,0,1.906-0.15,2.418-0.45V23.215z"/>
	</g>
	<g>
		<path fill="#FFFFFF" d="M53.513,27.217v2.094c-0.99-0.465-1.854-0.698-2.592-0.698c-0.453,0-0.686,0.134-0.7,0.401
			c0,0.27,0.597,0.588,1.79,0.955c1.208,0.459,1.812,1.113,1.812,1.963c0,1.34-0.85,2.009-2.55,2.009
			c-0.665,0-1.46-0.174-2.388-0.522l-0.471,0.545v-2.337c0.964,0.627,1.896,0.941,2.796,0.941c0.481,0,0.721-0.146,0.721-0.438
			c0-0.276-0.467-0.56-1.4-0.851c-0.778-0.256-1.354-0.577-1.727-0.964c-0.289-0.357-0.433-0.779-0.433-1.266
			c0-0.634,0.33-1.128,0.989-1.482c0.469-0.219,1.038-0.328,1.706-0.328c0.506,0,1.164,0.146,1.973,0.437L53.513,27.217z"/>
		<path fill="#FFFFFF" d="M62.568,27.32v1.937l-0.445-0.383H60.41v4.495l0.36,0.468h-2.575l0.382-0.49v-4.473h-1.706l-0.441,0.383
			V27.32H62.568z"/>
		<path fill="#FFFFFF" d="M68.21,27.217c2.313,0,3.47,1.129,3.47,3.387c0,2.228-1.136,3.342-3.406,3.342
			c-2.373,0-3.56-1.138-3.56-3.414C64.714,28.321,65.879,27.217,68.21,27.217z M66.602,30.518c0,1.366,0.552,2.05,1.654,2.05
			c1.024,0,1.536-0.655,1.536-1.964c0-1.339-0.537-2.009-1.612-2.009C67.128,28.595,66.602,29.235,66.602,30.518z"/>
		<path fill="#FFFFFF" d="M74.063,27.32h3.844c1.562,0,2.342,0.657,2.342,1.973c0,1.074-0.464,1.732-1.392,1.973l1.667,2.576H77.8
			l0.378-0.491l-1.158-1.838h-0.802v1.838l0.378,0.491h-2.533l0.36-0.446v-5.634L74.063,27.32z M76.218,28.667v1.612h1.243
			c0.631,0,0.947-0.276,0.95-0.829c0-0.522-0.324-0.783-0.972-0.783H76.218z"/>
		<path fill="#FFFFFF" d="M82.766,27.32h5.778v1.747l-0.483-0.405h-3.123v1.279h1.985l0.463-0.405v2.085l-0.463-0.405h-1.985v1.279
			h3.123l0.483-0.405v1.747h-5.778l0.382-0.49v-5.536L82.766,27.32z"/>
	</g>
	<g>
		<path fill="#FFFFFF" d="M4.024,24.855h0.544l-0.081,0.1v0.715c0,0.158,0.089,0.237,0.269,0.237c0.181,0,0.271-0.077,0.271-0.233
			v-0.719l-0.076-0.1h0.543l-0.081,0.1v0.719c0,0.345-0.219,0.518-0.656,0.518c-0.438,0-0.657-0.176-0.657-0.525V24.95L4.024,24.855
			z"/>
		<path fill="#FFFFFF" d="M6.178,24.855h0.411l0.673,0.759V24.95l-0.076-0.095h0.46l-0.081,0.1v1.215H7.271l-0.713-0.771v0.673
			l0.081,0.099h-0.46l0.077-0.097v-1.112L6.178,24.855z"/>
		<path fill="#FFFFFF" d="M8.433,24.855h0.551L8.907,24.95v1.125l0.077,0.095H8.433l0.082-0.099v-1.116L8.433,24.855z"/>
		<path fill="#FFFFFF" d="M9.703,24.855h0.542l-0.076,0.099l0.313,0.717l0.332-0.721l-0.081-0.095h0.461v0.005l-0.609,1.299h-0.268
			L9.703,24.855z"/>
		<path fill="#FFFFFF" d="M11.899,24.855h1.237v0.353l-0.104-0.081h-0.668v0.258h0.425l0.099-0.082v0.421l-0.099-0.082h-0.425v0.258
			h0.668l0.104-0.082v0.353h-1.237l0.082-0.099v-1.116L11.899,24.855z"/>
		<path fill="#FFFFFF" d="M13.86,24.855h0.823c0.334,0,0.501,0.133,0.501,0.398c0,0.217-0.099,0.35-0.298,0.397l0.357,0.52H14.66
			l0.081-0.099l-0.248-0.371h-0.171v0.371l0.081,0.099H13.86l0.077-0.09v-1.137L13.86,24.855z M14.321,25.127v0.325h0.266
			c0.135,0,0.203-0.056,0.203-0.167c0-0.105-0.069-0.158-0.208-0.158H14.321z"/>
		<path fill="#FFFFFF" d="M17.048,24.835v0.422c-0.212-0.094-0.397-0.141-0.555-0.141c-0.097,0-0.147,0.027-0.15,0.081
			c0,0.055,0.128,0.119,0.383,0.192c0.258,0.093,0.388,0.225,0.388,0.396c0,0.27-0.182,0.405-0.546,0.405
			c-0.142,0-0.313-0.035-0.511-0.105l-0.101,0.109v-0.471c0.207,0.126,0.406,0.189,0.599,0.189c0.103,0,0.155-0.029,0.155-0.088
			c0-0.056-0.1-0.113-0.3-0.172c-0.167-0.052-0.29-0.116-0.37-0.194c-0.062-0.072-0.093-0.157-0.093-0.256
			c0-0.127,0.07-0.227,0.211-0.299c0.101-0.044,0.222-0.065,0.365-0.065c0.108,0,0.249,0.029,0.422,0.088L17.048,24.835z"/>
		<path fill="#FFFFFF" d="M18.235,24.854h0.443l0.642,1.316h-0.548l0.077-0.1l-0.059-0.136h-0.629l-0.068,0.136l0.077,0.1h-0.475
			l0.583-1.217L18.235,24.854z M18.253,25.696h0.439l-0.217-0.471L18.253,25.696z"/>
		<path fill="#FFFFFF" d="M20.024,24.855h0.542l-0.076,0.1v0.944h0.619l0.113-0.081v0.353h-1.198l0.082-0.099v-1.117L20.024,24.855z
			"/>
		<path fill="#FFFFFF" d="M23.827,26.173l-0.39-0.736v0.632l0.085,0.103h-0.468c0-0.001,0.031-0.038,0.093-0.109v-1.11l-0.072-0.096
			h0.457l0.422,0.796l0.405-0.796h0.476l-0.088,0.103v1.135l0.068,0.08h-0.535l0.083-0.092v-0.607l-0.354,0.699H23.827z"/>
		<path fill="#FFFFFF" d="M25.531,24.855h0.544l-0.081,0.1v0.715c0,0.158,0.089,0.237,0.269,0.237c0.181,0,0.271-0.077,0.271-0.233
			v-0.719l-0.076-0.1H27l-0.081,0.1v0.719c0,0.345-0.219,0.518-0.656,0.518c-0.438,0-0.657-0.176-0.657-0.525V24.95L25.531,24.855z"
			/>
		<path fill="#FFFFFF" d="M28.779,24.835v0.422c-0.212-0.094-0.397-0.141-0.555-0.141c-0.097,0-0.147,0.027-0.15,0.081
			c0,0.055,0.128,0.119,0.383,0.192c0.258,0.093,0.388,0.225,0.388,0.396c0,0.27-0.182,0.405-0.546,0.405
			c-0.142,0-0.313-0.035-0.511-0.105l-0.101,0.109v-0.471c0.207,0.126,0.406,0.189,0.599,0.189c0.103,0,0.155-0.029,0.155-0.088
			c0-0.056-0.1-0.113-0.3-0.172c-0.167-0.052-0.29-0.116-0.37-0.194c-0.062-0.072-0.093-0.157-0.093-0.256
			c0-0.127,0.07-0.227,0.211-0.299c0.101-0.044,0.222-0.065,0.365-0.065c0.108,0,0.249,0.029,0.422,0.088L28.779,24.835z"/>
		<path fill="#FFFFFF" d="M29.631,24.855h0.551l-0.077,0.095v1.125l0.077,0.095h-0.551l0.082-0.099v-1.116L29.631,24.855z"/>
		<path fill="#FFFFFF" d="M32.272,26.078c-0.147,0.076-0.317,0.114-0.509,0.114c-0.526,0-0.789-0.229-0.789-0.688
			c0-0.441,0.26-0.662,0.779-0.662c0.131,0,0.273,0.025,0.426,0.076l0.092-0.083v0.432c-0.167-0.096-0.34-0.144-0.517-0.144
			c-0.249,0-0.374,0.133-0.374,0.397c0,0.261,0.125,0.392,0.373,0.392c0.235,0,0.408-0.03,0.518-0.091V26.078z"/>
		<path fill="#FFFFFF" d="M35.458,24.835v0.434c-0.18-0.097-0.353-0.145-0.518-0.145c-0.249,0-0.374,0.133-0.374,0.398
			c0,0.261,0.122,0.391,0.364,0.391c0.083,0,0.151-0.009,0.205-0.026v-0.263l-0.077-0.102h0.458v0.536
			c-0.145,0.09-0.363,0.134-0.655,0.134c-0.469,0-0.703-0.229-0.703-0.688c0-0.441,0.266-0.662,0.797-0.662
			c0.144,0,0.28,0.025,0.408,0.076L35.458,24.835z"/>
		<path fill="#FFFFFF" d="M36.314,24.855h0.823c0.334,0,0.501,0.133,0.501,0.398c0,0.217-0.099,0.35-0.298,0.397l0.357,0.52h-0.583
			l0.081-0.099l-0.248-0.371h-0.171v0.371l0.081,0.099h-0.542l0.077-0.09v-1.137L36.314,24.855z M36.775,25.127v0.325h0.266
			c0.135,0,0.203-0.056,0.203-0.167c0-0.105-0.069-0.158-0.208-0.158H36.775z"/>
		<path fill="#FFFFFF" d="M39.075,24.835c0.496,0,0.743,0.228,0.743,0.683c0,0.449-0.243,0.675-0.729,0.675
			c-0.508,0-0.762-0.229-0.762-0.688C38.327,25.058,38.577,24.835,39.075,24.835z M38.731,25.501c0,0.275,0.118,0.413,0.354,0.413
			c0.219,0,0.329-0.132,0.329-0.396c0-0.27-0.115-0.404-0.345-0.404C38.844,25.113,38.731,25.242,38.731,25.501z"/>
		<path fill="#FFFFFF" d="M40.583,24.855h0.544l-0.081,0.1v0.715c0,0.158,0.089,0.237,0.269,0.237c0.181,0,0.271-0.077,0.271-0.233
			v-0.719l-0.076-0.1h0.543l-0.081,0.1v0.719c0,0.345-0.219,0.518-0.656,0.518c-0.438,0-0.657-0.176-0.657-0.525V24.95
			L40.583,24.855z"/>
		<path fill="#FFFFFF" d="M42.711,24.855h0.823c0.334,0,0.501,0.155,0.501,0.466c0,0.302-0.17,0.453-0.51,0.453h-0.353v0.298
			l0.081,0.099h-0.542l0.077-0.099v-1.108L42.711,24.855z M43.173,25.127v0.398h0.266c0.135,0,0.203-0.066,0.203-0.199
			c0-0.133-0.069-0.199-0.208-0.199H43.173z"/>
	</g>
</g>
</svg>
